<?xml version="1.0" standalone="no"?>
<!DOCTYPE svg PUBLIC "-//W3C//DTD SVG 20010904//EN"
 "http://www.w3.org/TR/2001/REC-SVG-20010904/DTD/svg10.dtd">
<svg version="1.0" xmlns="http://www.w3.org/2000/svg"
 width="736.000000pt" height="736.000000pt" viewBox="0 0 736.000000 736.000000"
 preserveAspectRatio="xMidYMid meet">

<g transform="translate(0.000000,736.000000) scale(0.100000,-0.100000)"
fill="#000000" stroke="none">
<path d="M1994 6357 c-42 -55 -94 -160 -110 -220 -13 -51 -8 -87 20 -129 16
-24 15 -26 -61 -101 -42 -42 -77 -77 -78 -77 -1 0 7 33 17 73 21 81 27 238 11
277 -10 23 -15 17 -73 -100 -55 -108 -64 -133 -64 -181 -1 -46 4 -63 26 -95
27 -37 27 -39 10 -65 -30 -48 -113 -151 -118 -147 -2 3 1 42 7 88 18 130 0
290 -31 290 -9 0 -66 -148 -85 -220 -27 -102 -13 -179 38 -213 l27 -17 -57
-93 c-31 -50 -59 -95 -62 -99 -3 -4 -6 34 -6 85 0 79 -5 107 -35 195 -19 56
-38 102 -42 102 -11 0 -26 -60 -49 -198 -26 -148 -20 -181 41 -236 22 -20 40
-41 40 -47 0 -7 -19 -54 -41 -106 -46 -104 -59 -106 -59 -13 0 30 -7 79 -14
108 -15 56 -64 164 -89 197 -14 18 -16 16 -23 -40 -5 -33 -9 -124 -9 -203 l0
-143 35 -32 c19 -18 45 -39 58 -47 l22 -15 -30 -105 c-16 -58 -30 -107 -30
-110 -1 -18 -24 40 -51 125 -39 124 -67 180 -113 224 l-36 35 0 -120 c0 -212
37 -314 124 -350 26 -11 46 -26 46 -34 0 -8 -7 -55 -15 -105 -8 -49 -15 -94
-15 -99 0 -22 -20 13 -47 85 -16 41 -46 100 -66 130 -38 56 -125 155 -131 148
-14 -16 47 -335 74 -388 24 -48 33 -55 103 -81 l58 -22 -6 -111 c-3 -61 -7
-113 -9 -114 -1 -2 -15 21 -31 49 -46 88 -127 187 -188 234 -63 47 -77 52 -77
29 0 -33 93 -293 120 -337 35 -56 61 -75 130 -93 29 -8 54 -16 56 -18 2 -2 9
-42 14 -88 5 -46 12 -96 15 -111 2 -16 1 -28 -3 -28 -4 1 -34 34 -67 75 -33
41 -87 97 -120 124 -58 47 -162 107 -171 98 -14 -14 96 -236 155 -316 57 -77
85 -94 158 -102 35 -4 66 -9 70 -12 3 -4 20 -58 38 -122 35 -123 36 -121 -33
-57 -65 61 -135 113 -182 137 -50 25 -171 67 -177 61 -9 -8 146 -225 205 -288
77 -81 126 -104 205 -95 l53 7 52 -117 c28 -64 51 -118 49 -119 -1 -2 -36 24
-77 57 -41 33 -102 73 -135 89 -100 47 -245 90 -245 71 0 -14 112 -151 182
-223 119 -122 179 -146 296 -116 34 8 47 8 50 0 2 -6 30 -54 64 -107 33 -53
58 -98 56 -100 -1 -2 -34 12 -73 31 -139 68 -202 85 -320 90 l-110 5 49 -46
c78 -73 215 -172 293 -212 64 -31 79 -35 122 -30 27 3 68 16 92 27 23 12 45
18 48 13 4 -4 18 -21 30 -38 12 -16 50 -58 83 -92 33 -35 56 -63 52 -63 -5 0
-45 11 -89 25 -128 40 -281 59 -367 45 -70 -10 -86 -16 -77 -24 2 -2 58 -37
124 -76 177 -107 236 -132 325 -138 69 -4 80 -2 134 27 l59 32 39 -27 c21 -15
41 -31 44 -36 3 -4 -25 -8 -63 -8 -79 0 -121 -20 -153 -72 -18 -30 -20 -51
-20 -213 l0 -180 128 0 c145 0 229 -20 339 -81 l61 -34 1372 0 1373 0 51 29
c28 16 87 42 131 57 71 25 95 28 213 28 l132 1 0 180 c0 162 -2 183 -20 213
-32 52 -74 72 -153 72 -38 0 -66 4 -63 8 3 5 23 21 44 36 l39 27 59 -32 c55
-29 65 -31 134 -26 46 3 94 13 125 26 62 27 325 183 325 193 0 12 -91 23 -172
21 -87 -1 -159 -14 -274 -49 -45 -13 -85 -24 -89 -24 -4 0 20 28 53 63 33 34
71 76 83 92 12 17 26 34 30 38 3 5 25 -1 48 -13 72 -36 129 -37 203 -3 63 30
282 188 327 237 l24 26 -72 0 c-108 0 -213 -26 -329 -81 -56 -27 -105 -49
-107 -49 -3 0 22 41 55 90 32 50 62 100 65 111 6 17 12 20 33 15 15 -4 55 -9
89 -13 55 -5 67 -3 109 22 25 15 77 58 114 95 71 71 190 216 190 232 0 4 -12
6 -27 2 -143 -31 -250 -81 -353 -163 -41 -33 -76 -59 -77 -57 -1 1 20 55 49
119 l51 116 57 -6 c106 -11 175 41 307 227 70 98 108 160 100 160 -14 0 -140
-46 -177 -65 -49 -25 -121 -79 -183 -138 -21 -20 -44 -41 -51 -46 -8 -7 0 36
19 106 35 128 37 131 116 132 55 1 95 28 151 103 38 50 138 245 153 297 6 21
5 23 -11 17 -96 -37 -210 -129 -299 -244 -46 -58 -57 -64 -50 -24 3 15 10 65
15 111 5 47 13 88 17 91 5 4 34 12 65 19 66 14 100 46 141 134 32 66 102 295
93 304 -9 9 -76 -39 -129 -92 -52 -52 -89 -103 -132 -182 -15 -29 -31 -53 -34
-53 -3 0 -7 51 -9 113 l-4 114 49 18 c26 9 58 24 70 31 28 17 56 72 72 139 16
62 51 299 45 304 -6 6 -92 -90 -129 -146 -19 -28 -49 -87 -66 -130 -30 -74
-49 -109 -49 -87 0 5 -7 50 -15 99 -20 124 -21 120 25 134 24 7 49 25 65 45
45 60 57 110 62 276 l5 155 -35 -33 c-48 -46 -80 -109 -117 -232 -18 -58 -36
-108 -39 -113 -4 -4 -22 41 -40 100 l-33 108 24 15 c12 8 39 29 58 47 l35 31
0 139 c0 146 -11 253 -25 253 -13 0 -78 -137 -95 -200 -8 -30 -15 -77 -16
-105 -1 -98 -12 -96 -57 7 -23 52 -42 100 -42 105 0 6 20 30 44 55 30 29 47
56 51 81 10 54 -43 347 -63 347 -4 0 -23 -46 -42 -102 -30 -88 -35 -116 -35
-195 0 -51 -3 -89 -6 -85 -3 4 -31 49 -62 99 l-57 93 27 17 c51 33 65 111 39
209 -19 74 -77 224 -86 224 -30 0 -47 -205 -28 -333 5 -31 4 -46 -2 -42 -6 3
-37 42 -71 86 l-61 80 29 41 c23 34 28 51 27 97 0 48 -9 74 -64 181 -58 117
-63 123 -73 100 -17 -40 -11 -197 11 -277 11 -40 18 -73 16 -73 -3 0 -38 35
-79 77 l-74 77 21 34 c30 49 21 127 -27 223 -45 88 -95 160 -106 153 -16 -9 0
-192 21 -255 12 -34 20 -65 18 -69 -2 -4 -32 9 -67 31 -82 49 -241 102 -241
79 0 -15 124 -143 169 -174 61 -42 112 -57 155 -45 45 12 53 6 154 -106 71
-79 83 -101 40 -73 -70 46 -203 75 -289 63 -48 -7 -50 -8 -33 -26 29 -32 196
-109 251 -116 42 -4 58 -1 93 18 31 17 44 20 47 12 3 -7 34 -51 70 -98 36 -47
63 -88 60 -91 -3 -3 -41 13 -85 36 -79 40 -157 60 -234 60 -21 0 -38 -5 -38
-10 0 -14 122 -102 191 -140 64 -34 97 -37 159 -15 23 8 46 13 50 10 11 -7 97
-157 110 -190 12 -30 11 -30 -72 31 -62 45 -151 80 -233 90 l-50 7 20 -24 c36
-44 140 -139 185 -170 43 -29 49 -31 118 -26 l72 5 21 -39 c26 -52 79 -189 72
-189 -3 0 -29 22 -58 48 -29 27 -84 65 -122 85 -65 34 -160 63 -170 53 -6 -6
106 -144 156 -193 55 -54 84 -65 157 -61 51 2 65 0 69 -12 2 -8 16 -60 31
-115 14 -55 29 -106 32 -115 3 -8 -37 30 -90 85 -94 99 -159 143 -232 161 -37
9 -36 5 46 -126 101 -161 150 -200 257 -200 19 0 32 -6 35 -17 9 -30 26 -155
26 -197 l0 -39 -42 59 c-79 112 -144 175 -220 215 -75 39 -75 28 1 -126 88
-178 121 -211 221 -224 l45 -6 7 -86 c4 -48 4 -106 0 -130 l-7 -43 -55 98
c-30 54 -71 118 -92 141 -35 39 -128 115 -141 115 -9 0 40 -173 72 -255 47
-121 89 -164 174 -180 20 -4 37 -10 37 -14 0 -3 -7 -60 -15 -126 -8 -65 -15
-126 -15 -134 0 -27 -11 -4 -31 70 -35 128 -138 296 -201 330 -20 11 -20 9
-13 -63 27 -276 80 -392 193 -414 29 -6 31 -9 25 -38 -10 -54 -53 -197 -67
-224 -12 -23 -13 -21 -20 40 -14 142 -69 293 -140 383 l-31 39 -6 -39 c-11
-76 -4 -328 11 -373 17 -55 72 -118 116 -134 30 -11 34 -16 29 -38 -8 -37
-106 -230 -116 -230 -5 0 -9 41 -9 91 0 98 -14 167 -55 267 -26 63 -65 132
-76 132 -7 0 -38 -197 -46 -287 -10 -127 36 -243 112 -279 l35 -16 -26 -47
c-39 -66 -123 -188 -141 -203 -14 -11 -15 -10 -10 7 25 86 30 123 31 220 0
109 -26 253 -56 308 -11 21 -12 20 -30 -22 -41 -96 -89 -278 -95 -357 -7 -102
6 -142 62 -192 l43 -38 -32 -44 c-44 -61 -132 -156 -167 -180 l-28 -21 29 87
c40 117 60 219 60 302 0 74 -16 182 -30 196 -18 18 -118 -178 -166 -327 -44
-137 -35 -218 33 -281 l27 -25 -29 -31 -29 -30 -1646 0 -1646 0 -29 30 -28 29
36 40 c65 72 68 137 12 299 -48 141 -138 313 -155 296 -14 -14 -30 -122 -30
-196 0 -84 22 -193 60 -301 16 -45 27 -83 26 -85 -8 -7 -130 115 -175 176
l-50 66 41 35 c52 44 68 84 68 165 0 97 -97 435 -121 421 -15 -10 -48 -136
-59 -230 -12 -96 -7 -181 15 -266 8 -29 12 -55 10 -57 -5 -5 -86 105 -131 179
-38 64 -39 84 0 99 64 24 113 154 102 270 -9 105 -39 290 -46 290 -9 0 -51
-75 -78 -140 -37 -90 -52 -163 -52 -259 0 -50 -4 -91 -8 -91 -9 0 -109 195
-117 230 -5 22 -1 27 29 38 43 16 99 79 114 129 19 66 25 158 17 290 l-7 128
-34 -40 c-68 -81 -126 -238 -140 -383 -7 -61 -8 -63 -20 -40 -14 27 -57 170
-67 224 -5 29 -4 31 37 42 72 19 121 83 149 198 18 71 42 273 33 282 -13 12
-112 -107 -153 -184 -23 -43 -51 -112 -62 -153 -11 -41 -22 -76 -24 -78 -3 -2
-10 40 -16 94 -7 54 -14 117 -17 139 -6 41 -6 41 32 49 86 16 128 59 174 177
35 90 81 258 71 258 -16 0 -128 -99 -162 -143 -19 -26 -55 -85 -80 -130 l-44
-82 -6 43 c-8 63 2 213 15 217 6 2 33 6 59 10 77 10 115 52 197 219 77 157 76
168 -13 117 -60 -35 -146 -120 -206 -205 l-41 -59 0 39 c0 40 17 167 25 194 3
11 28 19 77 27 70 11 75 14 123 65 50 54 171 245 162 255 -8 8 -76 -16 -123
-43 -23 -13 -83 -67 -134 -121 -51 -54 -90 -89 -87 -78 26 91 47 166 56 200
l10 40 65 -3 c73 -4 102 7 157 61 54 52 162 187 156 194 -11 10 -142 -36 -202
-72 -33 -20 -78 -54 -100 -76 -23 -21 -44 -39 -47 -39 -7 0 43 133 71 189 l21
39 72 -5 c70 -5 75 -3 122 28 46 31 138 116 181 168 l20 24 -50 -7 c-82 -10
-171 -45 -233 -90 -84 -62 -84 -62 -72 -31 11 28 79 147 102 178 12 17 16 17
57 2 63 -22 96 -19 160 15 69 38 191 126 191 140 0 5 -17 10 -37 10 -78 0
-157 -20 -235 -60 -45 -22 -83 -38 -86 -36 -3 3 22 41 55 83 33 43 65 88 72
100 l11 22 37 -24 c43 -30 81 -31 158 -5 65 22 176 82 194 104 10 12 5 15 -29
21 -77 13 -203 -12 -295 -58 l-39 -20 51 59 c28 33 71 78 96 102 44 43 45 44
85 32 61 -19 133 18 238 124 46 46 84 88 84 94 0 26 -179 -33 -255 -84 -27
-19 -52 -29 -53 -24 -2 6 3 29 12 50 22 54 41 220 30 252 l-9 26 -31 -41z
m517 -4355 c3 -4 2 -21 -2 -38 -9 -31 -10 -31 -47 -21 -41 11 -77 4 -67 -12 3
-5 30 -21 59 -34 44 -20 56 -31 66 -61 30 -91 -86 -163 -192 -118 -26 11 -27
13 -16 44 14 43 12 42 48 23 37 -19 85 -17 85 5 0 8 -25 27 -56 41 -68 33 -87
70 -65 123 19 46 68 68 131 61 28 -4 53 -9 56 -13z m492 -2 c4 -4 3 -19 -3
-34 -10 -27 -12 -27 -65 -21 -74 10 -85 0 -85 -79 0 -95 21 -111 123 -92 38 7
38 7 35 -21 -3 -25 -9 -29 -62 -42 -51 -12 -65 -12 -100 0 -58 20 -86 66 -86
141 0 90 36 140 115 159 33 8 115 1 128 -11z m1002 -9 c45 -25 67 -75 62 -144
-4 -64 -26 -103 -73 -126 -73 -36 -178 -9 -208 54 -20 42 -21 127 -1 169 34
70 138 93 220 47z m544 0 c48 -34 64 -66 64 -129 0 -106 -51 -156 -159 -156
-40 0 -59 5 -86 26 -64 49 -76 174 -22 237 42 50 148 61 203 22z m-1209 -41
l0 -60 45 0 45 0 0 60 0 60 45 0 45 0 0 -150 0 -150 -45 0 -45 0 0 60 0 60
-45 0 -45 0 0 -60 0 -60 -45 0 -45 0 0 150 0 150 45 0 45 0 0 -60z m1612 -60
l-3 -120 55 0 c57 0 64 -6 50 -44 -5 -13 -23 -16 -95 -16 l-89 0 0 150 0 150
43 0 42 0 -3 -120z"/>
<path d="M3867 1943 c-11 -10 -8 -132 3 -154 16 -28 85 -27 101 2 14 27 7 122
-10 143 -13 16 -81 22 -94 9z"/>
<path d="M4410 1931 c-14 -27 -12 -101 3 -131 11 -21 20 -25 57 -25 42 0 44 1
52 35 10 44 1 106 -19 125 -22 22 -80 19 -93 -4z"/>
<path d="M3215 5774 c-874 -425 -1000 -487 -1087 -527 -49 -22 -88 -43 -88
-47 0 -5 28 -23 63 -40 150 -78 574 -304 594 -316 12 -8 25 -14 28 -14 3 0 5
38 5 84 l0 85 108 35 c334 108 659 148 1014 126 256 -16 433 -49 670 -126
l108 -35 0 -85 c0 -46 1 -84 3 -84 2 0 118 61 258 136 140 75 293 156 342 180
48 24 87 48 87 52 0 4 -107 59 -237 121 -282 136 -857 414 -1177 570 -126 61
-229 111 -230 110 -1 0 -208 -102 -461 -225z"/>
<path d="M3450 5070 c-195 -16 -420 -63 -565 -117 l-50 -19 3 -149 c2 -83 5
-151 7 -153 2 -2 20 4 41 13 57 24 246 72 349 89 401 67 907 32 1228 -85 28
-10 52 -18 53 -16 1 1 4 70 5 152 l3 150 -64 23 c-199 72 -441 111 -720 116
-107 3 -238 1 -290 -4z"/>
<path d="M3525 4510 c-152 -10 -281 -32 -415 -73 -69 -20 -133 -32 -187 -35
l-82 -3 -10 -32 c-41 -130 -41 -327 -1 -476 l11 -41 74 0 c57 0 103 -8 188
-34 199 -60 290 -71 582 -71 287 1 384 13 592 75 72 21 123 30 173 30 77 0 78
0 95 77 l7 33 -688 2 -689 3 -9 27 c-8 22 -6 32 9 48 18 20 27 20 700 20 l682
0 6 36 c3 20 3 49 0 65 l-5 29 -677 0 c-737 0 -721 -1 -721 55 0 56 -15 55
718 55 580 0 673 2 669 14 -3 8 -9 31 -13 50 l-6 36 -77 0 c-55 0 -97 7 -150
25 -115 39 -301 73 -461 85 -80 5 -156 9 -170 8 -14 0 -79 -4 -145 -8z"/>
</g>
</svg>
